<svg width="304" height="71" viewBox="0 0 304 71" fill="none" xmlns="http://www.w3.org/2000/svg">
<path d="M303 35.5C303 37.6413 302.075 39.8093 300.16 41.9955C298.239 44.1882 295.36 46.351 291.572 48.4428C283.996 52.6261 272.967 56.4255 259.253 59.6285C231.841 66.0307 193.92 70 152 70C110.08 70 72.1595 66.0307 44.7472 59.6285C31.0331 56.4255 20.0043 52.6261 12.4283 48.4428C8.63997 46.351 5.76138 44.1882 3.84024 41.9955C1.92475 39.8093 1 37.6413 1 35.5C1 33.3587 1.92475 31.1907 3.84024 29.0045C5.76138 26.8118 8.63997 24.649 12.4283 22.5572C20.0043 18.3739 31.0331 14.5745 44.7472 11.3715C72.1595 4.96929 110.08 1 152 1C193.92 1 231.841 4.96929 259.253 11.3715C272.967 14.5745 283.996 18.3739 291.572 22.5572C295.36 24.649 298.239 26.8118 300.16 29.0045C302.075 31.1907 303 33.3587 303 35.5Z" fill="#5A9E7B" stroke="#1C685E" stroke-width="2"/>
</svg>
